<svg xmlns="http://www.w3.org/2000/svg" width="129.684" height="15.492" viewBox="0 0 129.684 15.492">
  <path id="パス_2186" data-name="パス 2186" d="M5.67-11c-.594,0-1.188-.018-1.764-.018-.81,0-.846.2-.846.7,0,.288.018.594.018.9V-7c0,.432-.036.864-.036,1.3,0,.414.144.45.738.45.756,0,.864-.036.864-.468,0-.27-.018-.918-.018-1.3V-9.054a.5.5,0,0,1,.5-.5h7.326c.45,0,.918-.054.918.5a10.5,10.5,0,0,1-.792,2.988,9.417,9.417,0,0,1-3.1,3.96A13.575,13.575,0,0,1,7.164-.648c-.27.126-.486.2-.486.4,0,.27.594,1.062.936,1.062A7.933,7.933,0,0,0,9.7-.378c3.258-2.3,4.626-4.716,5.31-8.64.126-.756.288-.936.288-1.1,0-.27-.72-.936-1.026-.936a2.439,2.439,0,0,0-.36.036c-.18.018-.414.018-.648.018H10.224a.478.478,0,0,1-.486-.5v-1.44c0-.486.018-.684.18-.828.072-.072.2-.18.2-.27,0-.2-.468-.234-.612-.234-.18-.036-1.044-.108-1.188-.108-.126,0-.252.054-.252.18a1.053,1.053,0,0,0,.036.234,12.747,12.747,0,0,1,.072,1.674v.792a.492.492,0,0,1-.5.5Zm19.6-1.224c-.756,0-1.494-.036-2.25-.036-.45,0-.45.216-.45.756,0,.666,0,.828.468.828.738,0,1.476-.036,2.214-.036h6.732c.36,0,.648.036.648.4,0,.09-.036.27-.036.36a9.088,9.088,0,0,1-2.178,4.86A12.436,12.436,0,0,1,25-1.782c-.162.054-.324.09-.324.288,0,.288.522,1.134.864,1.134a1.623,1.623,0,0,0,.576-.162A15.727,15.727,0,0,0,29.466-2.3a10.956,10.956,0,0,0,4.842-7.9c.126-.792.27-.918.27-1.116,0-.162-.63-.954-1.026-.954a1.773,1.773,0,0,0-.306.036c-.2.018-.45.018-.72.018Zm19.44,0c-.756,0-1.494-.036-2.25-.036-.45,0-.45.216-.45.756,0,.666,0,.828.468.828.738,0,1.476-.036,2.214-.036h6.732c.36,0,.648.036.648.4,0,.09-.036.27-.036.36a9.088,9.088,0,0,1-2.178,4.86,12.436,12.436,0,0,1-5.418,3.312c-.162.054-.324.09-.324.288,0,.288.522,1.134.864,1.134a1.623,1.623,0,0,0,.576-.162A15.727,15.727,0,0,0,48.906-2.3a10.956,10.956,0,0,0,4.842-7.9c.126-.792.27-.918.27-1.116,0-.162-.63-.954-1.026-.954a1.773,1.773,0,0,0-.306.036c-.2.018-.45.018-.72.018Zm19.53.666c-.864,0-1.8-.054-2.232-.054-.306,0-.378.144-.378.738,0,.612.036.864.4.864.4,0,1.422-.054,2.232-.054h6.5a.522.522,0,0,1,.522.522v5.688a.522.522,0,0,1-.522.522h-6.5c-.81,0-1.818-.054-2.214-.054-.414,0-.414.2-.414.792s0,.81.414.81c.162,0,.306-.018.45-.018.5-.036,1.242-.036,1.782-.036H70.4c.486,0,.738,0,.81.414.054.342.072.414.738.414.756,0,.918,0,.918-.558,0-.45-.036-.99-.036-1.53V-9.144c0-.522.018-1.026.018-1.53,0-.792-.36-.918-1.1-.918-.45,0-.9.036-1.35.036Zm18.4,3.636c-.774,0-1.89-.054-2.178-.054-.432,0-.486.126-.486.882,0,.414,0,.774.45.774.738,0,1.476-.054,2.214-.054H90.9c.738,0,1.476.054,2.214.054.432,0,.432-.36.432-.774,0-.756-.036-.882-.486-.882-.288,0-1.4.054-2.16.054Zm18.81-.072c-.738,0-1.566-.054-2.232-.054-.432,0-.432.306-.432.828,0,.45.018.738.45.738.684,0,1.458-.036,2.214-.036h4.014a.3.3,0,0,1,.306.288,1.621,1.621,0,0,1-.054.288,8.256,8.256,0,0,1-1.566,2.9,8.455,8.455,0,0,1-2.9,2.124c-.162.072-.4.162-.4.342,0,.27.828,1.026,1.116,1.026a9,9,0,0,0,2.16-1.332,9.108,9.108,0,0,0,3.186-4.95c.108-.378.216-.684.666-.684h2.97c.738,0,1.494.036,2.25.036.414,0,.45-.252.45-.738,0-.63-.036-.828-.45-.828-.684,0-1.494.054-2.25.054h-2.808c-.306,0-.4-.216-.4-.468,0-.288.036-.756.036-1.116,0-.432-.054-1.116-.054-1.3,0-.288.2-.414.432-.468a21.258,21.258,0,0,0,2.16-.612,3.356,3.356,0,0,1,.7-.18c.054,0,.108.018.162.018a.929.929,0,0,0,.2.036.2.2,0,0,0,.216-.18c0-.2-.4-.612-.666-.882l-.144-.144c-.108-.108-.342-.378-.5-.378a.489.489,0,0,0-.306.144,13.107,13.107,0,0,1-3.4,1.026,27.456,27.456,0,0,1-4.7.414c-.2,0-.468-.018-.576-.018-.18,0-.378.036-.378.27a2.542,2.542,0,0,0,.288.882c.144.288.234.36.558.36,1.458,0,3.978-.324,4.032-.324.4,0,.432.324.432,1.458,0,.774.018,1.458-.558,1.458Zm20.07.072c-.774,0-1.89-.054-2.178-.054-.432,0-.486.126-.486.882,0,.414,0,.774.45.774.738,0,1.476-.054,2.214-.054h8.262c.738,0,1.476.054,2.214.054.432,0,.432-.36.432-.774,0-.756-.036-.882-.486-.882-.288,0-1.4.054-2.16.054Z" transform="translate(-2.892 14.532)" stroke="#000" stroke-width="0.3"/>
</svg>
